<svg width="14" height="21" viewBox="0 0 14 21" fill="none" xmlns="http://www.w3.org/2000/svg">
<path fill-rule="evenodd" clip-rule="evenodd" d="M9 9.75H7.5V3.75H8.25C9.90685 3.75 11.25 5.09315 11.25 6.75C11.25 7.16421 11.5858 7.5 12 7.5C12.4142 7.5 12.75 7.16421 12.75 6.75C12.7474 4.26579 10.7342 2.25258 8.25 2.25H7.5V0.75C7.5 0.335786 7.16421 0 6.75 0C6.33579 0 6 0.335786 6 0.75V2.25H5.25C2.76472 2.25 0.75 4.26472 0.75 6.75C0.75 9.23528 2.76472 11.25 5.25 11.25H6V17.25H4.5C2.84315 17.25 1.5 15.9069 1.5 14.25C1.5 13.8358 1.16421 13.5 0.75 13.5C0.335786 13.5 0 13.8358 0 14.25C0.0025835 16.7342 2.01579 18.7474 4.5 18.75H6V20.25C6 20.6642 6.33579 21 6.75 21C7.16421 21 7.5 20.6642 7.5 20.25V18.75H9C11.4853 18.75 13.5 16.7353 13.5 14.25C13.5 11.7647 11.4853 9.75 9 9.75ZM5.25 9.75C3.59315 9.75 2.25 8.40685 2.25 6.75C2.25 5.09315 3.59315 3.75 5.25 3.75H6V9.75H5.25ZM9 17.25H7.5V11.25H9C10.6569 11.25 12 12.5931 12 14.25C12 15.9069 10.6569 17.25 9 17.25Z" fill="white"/>
</svg>
