<?xml version="1.0" encoding="UTF-8"?>
<svg version="1.1" xmlns="http://www.w3.org/2000/svg" width="50" height="50">
<path d="M0 0 C5.56340585 3.36669624 9.53349183 8.25193794 11.5 14.4375 C12.30594257 22.2813829 12.59671889 30.02934467 7.5 36.4375 C3.04867668 41.14197914 -1.19064516 44.09747071 -7.76953125 44.7734375 C-16.04371997 44.8646634 -22.08428015 44.61560264 -28.2421875 38.7890625 C-34.17397269 32.28964236 -34.96296445 26.57688134 -34.80859375 17.88671875 C-34.22339005 11.3457711 -31.85547257 7.43687235 -27.0625 3.0625 C-19.84507341 -2.93248543 -8.52200107 -3.84066973 0 0 Z M-13.5 8.4375 C-13.5 9.7575 -13.5 11.0775 -13.5 12.4375 C-12.18 12.4375 -10.86 12.4375 -9.5 12.4375 C-9.5 11.1175 -9.5 9.7975 -9.5 8.4375 C-10.82 8.4375 -12.14 8.4375 -13.5 8.4375 Z M-15.5 17.4375 C-15.5 18.0975 -15.5 18.7575 -15.5 19.4375 C-14.84 19.4375 -14.18 19.4375 -13.5 19.4375 C-13.5 23.7275 -13.5 28.0175 -13.5 32.4375 C-14.16 32.4375 -14.82 32.4375 -15.5 32.4375 C-15.5 33.0975 -15.5 33.7575 -15.5 34.4375 C-12.86 34.4375 -10.22 34.4375 -7.5 34.4375 C-7.5 33.7775 -7.5 33.1175 -7.5 32.4375 C-8.16 32.4375 -8.82 32.4375 -9.5 32.4375 C-9.5 27.4875 -9.5 22.5375 -9.5 17.4375 C-11.48 17.4375 -13.46 17.4375 -15.5 17.4375 Z " fill="#FFFFFF" transform="translate(36.5,3.5625)"/>
</svg>
