<svg width="23" height="18" viewBox="0 0 23 18" fill="none" xmlns="http://www.w3.org/2000/svg">
<path fill-rule="evenodd" clip-rule="evenodd" d="M21.5934 10.9749C21.0277 10.5396 20.2915 10.393 19.6022 10.5783L15.6797 11.4802C15.8646 10.6992 15.682 9.87647 15.1841 9.24699C14.6861 8.6175 13.9276 8.2504 13.125 8.25049H8.43188C7.63581 8.24849 6.87196 8.56476 6.31031 9.12893L4.18969 11.2505H1.5C0.671573 11.2505 0 11.9221 0 12.7505V16.5005C0 17.3289 0.671573 18.0005 1.5 18.0005H11.25C11.3113 18.0005 11.3724 17.993 11.4319 17.978L17.4319 16.478C17.4701 16.4689 17.5075 16.4563 17.5434 16.4405L21.1875 14.8899L21.2288 14.8711C21.9407 14.5153 22.4189 13.8176 22.4939 13.0252C22.5688 12.2328 22.2299 11.4578 21.5972 10.9749H21.5934ZM1.5 12.7505H3.75V16.5005H1.5V12.7505ZM20.5716 13.5202L17.0091 15.0371L11.1562 16.5005H5.25V12.3108L7.37156 10.1902C7.6519 9.9076 8.03383 9.74922 8.43188 9.75049H13.125C13.7463 9.75049 14.25 10.2542 14.25 10.8755C14.25 11.4968 13.7463 12.0005 13.125 12.0005H10.5C10.0858 12.0005 9.75 12.3363 9.75 12.7505C9.75 13.1647 10.0858 13.5005 10.5 13.5005H13.5C13.5565 13.5003 13.6127 13.494 13.6678 13.4817L19.9491 12.0371L19.9781 12.0296C20.3752 11.9193 20.7915 12.1263 20.9433 12.5094C21.0952 12.8926 20.9336 13.3285 20.5688 13.5202H20.5716ZM15.375 6.75049C15.5603 6.7507 15.7453 6.73565 15.9281 6.70549C16.5005 8.4057 18.303 9.36099 20.0314 8.88013C21.7597 8.39927 22.8098 6.65032 22.4219 4.89879C22.0339 3.14726 20.3435 2.00531 18.5737 2.29924C18.0243 0.666266 16.3331 -0.29071 14.6504 0.0791869C12.9676 0.449084 11.8336 2.02709 12.0197 3.73993C12.2057 5.45278 13.6521 6.75051 15.375 6.75049ZM21 5.62549C21 6.66102 20.1605 7.50049 19.125 7.50049C18.0895 7.50049 17.25 6.66102 17.25 5.62549C17.25 4.58995 18.0895 3.75049 19.125 3.75049C20.1605 3.75049 21 4.58995 21 5.62549ZM15.375 1.50049C16.2156 1.50091 16.9532 2.0607 17.1797 2.87018C16.403 3.41668 15.8925 4.26514 15.7734 5.20736C15.6425 5.23564 15.509 5.25009 15.375 5.25049C14.3395 5.25049 13.5 4.41102 13.5 3.37549C13.5 2.33995 14.3395 1.50049 15.375 1.50049Z" fill="white"/>
</svg>
