<svg width="24" height="24" viewBox="0 0 24 24" fill="none" xmlns="http://www.w3.org/2000/svg">
<g clip-path="url(#clip0_24_815)">
<path fill-rule="evenodd" clip-rule="evenodd" d="M5.25 12C5.25 12.8284 4.57843 13.5 3.75 13.5C2.92157 13.5 2.25 12.8284 2.25 12C2.25 11.1716 2.92157 10.5 3.75 10.5C4.57843 10.5 5.25 11.1716 5.25 12ZM3.75 4.5C2.92157 4.5 2.25 5.17157 2.25 6C2.25 6.82843 2.92157 7.5 3.75 7.5C4.57843 7.5 5.25 6.82843 5.25 6C5.25 5.17157 4.57843 4.5 3.75 4.5ZM3.75 16.5C2.92157 16.5 2.25 17.1716 2.25 18C2.25 18.8284 2.92157 19.5 3.75 19.5C4.57843 19.5 5.25 18.8284 5.25 18C5.25 17.1716 4.57843 16.5 3.75 16.5ZM20.25 10.5H8.25C7.83579 10.5 7.5 10.8358 7.5 11.25V12.75C7.5 13.1642 7.83579 13.5 8.25 13.5H20.25C20.6642 13.5 21 13.1642 21 12.75V11.25C21 10.8358 20.6642 10.5 20.25 10.5ZM20.25 4.5H8.25C7.83579 4.5 7.5 4.83579 7.5 5.25V6.75C7.5 7.16421 7.83579 7.5 8.25 7.5H20.25C20.6642 7.5 21 7.16421 21 6.75V5.25C21 4.83579 20.6642 4.5 20.25 4.5ZM20.25 16.5H8.25C7.83579 16.5 7.5 16.8358 7.5 17.25V18.75C7.5 19.1642 7.83579 19.5 8.25 19.5H20.25C20.6642 19.5 21 19.1642 21 18.75V17.25C21 16.8358 20.6642 16.5 20.25 16.5Z" fill="white"/>
</g>
<defs>
<clipPath id="clip0_24_815">
<rect width="24" height="24" fill="white"/>
</clipPath>
</defs>
</svg>
