<svg width="17" height="17" viewBox="0 0 17 17" fill="none" xmlns="http://www.w3.org/2000/svg">
<path fill-rule="evenodd" clip-rule="evenodd" d="M16.2812 13.281L13.2812 16.281C12.9882 16.5741 12.513 16.5741 12.22 16.281C11.9269 15.988 11.9269 15.5129 12.22 15.2198L13.9403 13.5004H0.75061C0.336397 13.5004 0.000610352 13.1646 0.000610352 12.7504C0.000610352 12.3362 0.336397 12.0004 0.75061 12.0004H13.9403L12.22 10.281C11.9269 9.98799 11.9269 9.51285 12.22 9.21979C12.513 8.92674 12.9882 8.92674 13.2812 9.21979L16.2812 12.2198C16.4221 12.3605 16.5012 12.5514 16.5012 12.7504C16.5012 12.9495 16.4221 13.1404 16.2812 13.281ZM3.21999 7.28104C3.51304 7.5741 3.98818 7.5741 4.28124 7.28104C4.57429 6.98799 4.57429 6.51285 4.28124 6.21979L2.56092 4.50042H15.7506C16.1648 4.50042 16.5006 4.16463 16.5006 3.75042C16.5006 3.33621 16.1648 3.00042 15.7506 3.00042H2.56092L4.28124 1.28104C4.57429 0.987988 4.57429 0.512851 4.28124 0.219795C3.98818 -0.0732615 3.51304 -0.0732615 3.21999 0.219795L0.219985 3.21979C0.0791526 3.36047 2.02656e-05 3.55136 2.02656e-05 3.75042C2.02656e-05 3.94948 0.0791526 4.14037 0.219985 4.28104L3.21999 7.28104Z" fill="white"/>
</svg>
