<svg width="20" height="20" viewBox="0 0 20 20" fill="none" xmlns="http://www.w3.org/2000/svg">
<path fill-rule="evenodd" clip-rule="evenodd" d="M8.625 5.25H9V9H8.625C7.58947 9 6.75 8.16053 6.75 7.125C6.75 6.08947 7.58947 5.25 8.625 5.25ZM11.625 10.5H10.5V14.25H11.625C12.6605 14.25 13.5 13.4105 13.5 12.375C13.5 11.3395 12.6605 10.5 11.625 10.5ZM19.5 9.75C19.5 15.1348 15.1348 19.5 9.75 19.5C4.36522 19.5 0 15.1348 0 9.75C0 4.36522 4.36522 0 9.75 0C15.1324 0.0056839 19.4943 4.36758 19.5 9.75ZM15 12.375C15 10.511 13.489 9 11.625 9H10.5V5.25H10.875C11.9105 5.25 12.75 6.08947 12.75 7.125C12.75 7.53921 13.0858 7.875 13.5 7.875C13.9142 7.875 14.25 7.53921 14.25 7.125C14.25 5.26104 12.739 3.75 10.875 3.75H10.5V3C10.5 2.58579 10.1642 2.25 9.75 2.25C9.33579 2.25 9 2.58579 9 3V3.75H8.625C6.76104 3.75 5.25 5.26104 5.25 7.125C5.25 8.98896 6.76104 10.5 8.625 10.5H9V14.25H8.25C7.21447 14.25 6.375 13.4105 6.375 12.375C6.375 11.9608 6.03921 11.625 5.625 11.625C5.21079 11.625 4.875 11.9608 4.875 12.375C4.875 14.239 6.38604 15.75 8.25 15.75H9V16.5C9 16.9142 9.33579 17.25 9.75 17.25C10.1642 17.25 10.5 16.9142 10.5 16.5V15.75H11.625C13.489 15.75 15 14.239 15 12.375Z" fill="white"/>
</svg>
